<svg xmlns="http://www.w3.org/2000/svg" viewBox="0 0 1600 900">
    <defs>
      <linearGradient id="bg" x1="0" y1="0" x2="1" y2="1">
        <stop offset="0%" stop-color="#06070c"/>
        <stop offset="100%" stop-color="#221238"/>
      </linearGradient>
      <radialGradient id="glow" cx="70%" cy="25%" r="55%">
        <stop offset="0%" stop-color="#7d49ff" stop-opacity="0.55"/>
        <stop offset="100%" stop-color="#7d49ff" stop-opacity="0"/>
      </radialGradient>
    </defs>
    <rect width="1600" height="900" fill="url(#bg)"/>
    <rect width="1600" height="900" fill="url(#glow)"/>
    <rect x="110" y="110" width="1380" height="680" rx="28" fill="#0c0d15" stroke="#ffffff" stroke-opacity="0.14"/>
    <rect x="150" y="155" width="820" height="560" rx="24" fill="#111320" stroke="#ffffff" stroke-opacity="0.08"/>
    <rect x="1010" y="155" width="430" height="180" rx="24" fill="#121523" stroke="#ffffff" stroke-opacity="0.08"/>
    <rect x="1010" y="365" width="430" height="350" rx="24" fill="#121523" stroke="#ffffff" stroke-opacity="0.08"/>
    <rect x="195" y="215" width="420" height="26" rx="13" fill="#ffffff" fill-opacity="0.09"/>
    <rect x="195" y="267" width="340" height="18" rx="9" fill="#ffffff" fill-opacity="0.07"/>
    <rect x="195" y="330" width="730" height="290" rx="22" fill="#0b0d17" stroke="#7d49ff" stroke-opacity="0.35"/>
    <circle cx="1160" cy="240" r="54" fill="#7d49ff" fill-opacity="0.18"/>
    <circle cx="1160" cy="240" r="28" fill="#7d49ff" fill-opacity="0.55"/>
    <rect x="1090" y="430" width="270" height="18" rx="9" fill="#ffffff" fill-opacity="0.1"/>
    <rect x="1090" y="474" width="220" height="14" rx="7" fill="#ffffff" fill-opacity="0.08"/>
    <rect x="1090" y="520" width="300" height="14" rx="7" fill="#ffffff" fill-opacity="0.08"/>
    <rect x="1090" y="566" width="240" height="14" rx="7" fill="#ffffff" fill-opacity="0.08"/>
    <text x="195" y="175" fill="#d7dbff" font-family="Arial, Helvetica, sans-serif" font-size="64" font-weight="700">AI HIRING PLATFORM</text>
    <text x="195" y="270" fill="#ffffff" fill-opacity="0.75" font-family="Arial, Helvetica, sans-serif" font-size="28">Agentic parsing + ranking + matching</text>
    <text x="195" y="664" fill="#7d49ff" font-family="Arial, Helvetica, sans-serif" font-size="28" font-weight="600" letter-spacing="2">FASTAPI / NODE / EMBEDDINGS</text>
    </svg>